<?xml version="1.0" encoding="UTF-8"?>
<svg id="Camada_1" data-name="Camada 1" xmlns="http://www.w3.org/2000/svg" viewBox="0 0 282.11 317.32">
  <defs>
    <style>
      .cls-1 {
        fill: #fff;
      }
    </style>
  </defs>
  <path class="cls-1" d="M235.83,46.54v88.35c3.98,1.64,7.53,3.37,10.63,5.2V49.64c-3.44-1.11-6.96-2.1-10.63-3.1Z"/>
  <path class="cls-1" d="M207.07,40.46v86.02c5.28,1.07,10.29,2.33,14.92,3.67V43.25c-4.82-1.03-9.79-1.99-14.92-2.79Z"/>
  <path class="cls-1" d="M169.78,36.22v84.99c6.77.42,13.42,1.03,19.89,1.8V38.01c-6.46-.77-13.12-1.38-19.89-1.8Z"/>
  <path class="cls-1" d="M128.66,35.45v84.98c.08,0,.15-.04.23,0,1.64-.04,3.33-.08,5.01-.11,2.37-.04,4.78-.08,7.19-.08s4.82.04,7.19.08c1.68.04,3.37.08,5.01.11.08-.04.15,0,.23,0V35.45c-4.09-.12-8.26-.19-12.43-.19s-8.34.08-12.43.19Z"/>
  <path class="cls-1" d="M92.48,74.16v48.84c6.46-.76,13.12-1.38,19.89-1.8v-48.84c-6.77.42-13.42,1.03-19.89,1.8Z"/>
  <path class="cls-1" d="M35.68,85.79v54.35c3.1-1.84,6.65-3.6,10.67-5.24v-52.21c-3.67.99-7.23,2.03-10.67,3.1Z"/>
  <path class="cls-1" d="M60.2,79.4v50.75c4.63-1.34,9.64-2.6,14.92-3.67v-49.87c-5.13.8-10.1,1.76-14.92,2.79Z"/>
  <path class="cls-1" d="M46.32,270.82v-88.35c-3.98-1.64-7.53-3.37-10.63-5.2v90.45c3.44,1.11,6.96,2.1,10.63,3.1Z"/>
  <path class="cls-1" d="M75.08,276.9v-86.02c-5.28-1.07-10.29-2.33-14.92-3.67v86.9c4.82,1.03,9.79,1.99,14.92,2.79Z"/>
  <path class="cls-1" d="M112.37,281.15v-84.99c-6.77-.42-13.42-1.03-19.89-1.8v84.98c6.46.77,13.12,1.38,19.89,1.8Z"/>
  <path class="cls-1" d="M153.48,281.91v-84.98c-.08,0-.15.04-.23,0-1.64.04-3.33.08-5.01.11-2.37.04-4.78.08-7.19.08s-4.82-.04-7.19-.08c-1.68-.04-3.37-.08-5.01-.11-.08.04-.15,0-.23,0v84.98c4.09.12,8.26.19,12.43.19s8.34-.08,12.43-.19Z"/>
  <path class="cls-1" d="M189.67,243.21v-48.84c-6.46.76-13.12,1.38-19.89,1.8v48.84c6.77-.42,13.42-1.03,19.89-1.8Z"/>
  <path class="cls-1" d="M246.46,231.58v-54.35c-3.1,1.84-6.65,3.6-10.67,5.24v52.21c3.67-.99,7.23-2.03,10.67-3.1Z"/>
  <path class="cls-1" d="M221.95,237.97v-50.75c-4.63,1.34-9.64,2.6-14.92,3.67v49.87c5.13-.8,10.1-1.76,14.92-2.79Z"/>
</svg>