<?xml version="1.0" encoding="UTF-8"?>
<svg id="Camada_1" data-name="Camada 1" xmlns="http://www.w3.org/2000/svg" viewBox="0 0 731.62 352.15">
  <defs>
    <style>
      .cls-1 {
        fill: #fff;
      }
    </style>
  </defs>
  <g>
    <path class="cls-1" d="M235.36,46.97v88.35c3.98,1.64,7.53,3.37,10.63,5.2V50.07c-3.44-1.11-6.96-2.1-10.63-3.1Z"/>
    <path class="cls-1" d="M206.6,40.89v86.02c5.28,1.07,10.29,2.33,14.92,3.67V43.68c-4.82-1.03-9.79-1.99-14.92-2.79Z"/>
    <path class="cls-1" d="M169.31,36.65v84.99c6.77.42,13.42,1.03,19.89,1.8V38.44c-6.46-.77-13.12-1.38-19.89-1.8Z"/>
    <path class="cls-1" d="M128.19,35.88v84.98c.08,0,.15-.04.23,0,1.64-.04,3.33-.08,5.01-.11,2.37-.04,4.78-.08,7.19-.08s4.82.04,7.19.08c1.68.04,3.37.08,5.01.11.08-.04.15,0,.23,0V35.88c-4.09-.12-8.26-.19-12.43-.19s-8.34.08-12.43.19Z"/>
    <path class="cls-1" d="M92.01,74.59v48.84c6.46-.76,13.12-1.38,19.89-1.8v-48.84c-6.77.42-13.42,1.03-19.89,1.8Z"/>
    <path class="cls-1" d="M35.21,86.22v54.35c3.1-1.84,6.65-3.6,10.67-5.24v-52.21c-3.67.99-7.23,2.03-10.67,3.1Z"/>
    <path class="cls-1" d="M59.73,79.83v50.75c4.63-1.34,9.64-2.6,14.92-3.67v-49.87c-5.13.8-10.1,1.76-14.92,2.79Z"/>
    <path class="cls-1" d="M45.85,271.25v-88.35c-3.98-1.64-7.53-3.37-10.63-5.2v90.45c3.44,1.11,6.96,2.1,10.63,3.1Z"/>
    <path class="cls-1" d="M74.61,277.33v-86.02c-5.28-1.07-10.29-2.33-14.92-3.67v86.9c4.82,1.03,9.79,1.99,14.92,2.79Z"/>
    <path class="cls-1" d="M111.9,281.58v-84.99c-6.77-.42-13.42-1.03-19.89-1.8v84.98c6.46.77,13.12,1.38,19.89,1.8Z"/>
    <path class="cls-1" d="M153.02,282.34v-84.98c-.08,0-.15.04-.23,0-1.64.04-3.33.08-5.01.11-2.37.04-4.78.08-7.19.08s-4.82-.04-7.19-.08c-1.68-.04-3.37-.08-5.01-.11-.08.04-.15,0-.23,0v84.98c4.09.12,8.26.19,12.43.19s8.34-.08,12.43-.19Z"/>
    <path class="cls-1" d="M189.2,243.64v-48.84c-6.46.76-13.12,1.38-19.89,1.8v48.84c6.77-.42,13.42-1.03,19.89-1.8Z"/>
    <path class="cls-1" d="M245.99,232.01v-54.35c-3.1,1.84-6.65,3.6-10.67,5.24v52.21c3.67-.99,7.23-2.03,10.67-3.1Z"/>
    <path class="cls-1" d="M221.48,238.4v-50.75c-4.63,1.34-9.64,2.6-14.92,3.67v49.87c5.13-.8,10.1-1.76,14.92-2.79Z"/>
  </g>
  <g>
    <path class="cls-1" d="M413.97,171.14c0,20.44-15.83,36.46-36.04,36.46-17.61,0-32.34-10.09-36.64-25.1l-.19-.67h-24.55l.28,1.15c7.07,28.77,30.48,46.76,61.1,46.95h.38c15.8,0,31.43-6.51,42.87-17.87,11.08-11.01,17.18-25.55,17.18-40.92v-84.14h-24.4v84.14Z"/>
    <path class="cls-1" d="M524.34,142.84l-4.87-.68,39.78-34.21.08-.07v-20.88h-99.64v24.42h65.66l-34.28,33.83,9.97,14.5.07.1h11.81c17,0,27.99,9.29,27.99,23.66,0,13.48-12.38,23.26-29.44,23.26-19.18,0-33.6-12.7-35.07-30.88l-.07-.86h-24.44l.05.98c1.71,30.73,27.22,53.91,59.33,53.91s54.02-19.17,54.02-46.63c0-15.84-7.1-35.71-40.95-40.46Z"/>
    <rect class="cls-1" x="581.7" y="87" width="114.7" height="22.13"/>
    <polygon class="cls-1" points="581.7 226.83 606.11 226.83 606.11 173.46 689.61 173.46 689.61 150.91 581.7 150.91 581.7 226.83"/>
  </g>
  <g>
    <polygon class="cls-1" points="349.12 279.82 316.12 279.82 316.12 283.85 330.52 283.85 330.52 321.03 334.72 321.03 334.72 283.85 349.12 283.85 349.12 279.82"/>
    <path class="cls-1" d="M369.13,295.45c-.82-2-2.22-3.54-4.19-4.59-1.97-1.06-4.38-1.59-7.2-1.59-3.42,0-6.19.76-8.33,2.29-2.14,1.53-3.56,3.67-4.27,6.44l4.09,1.2c.59-2.06,1.62-3.57,3.08-4.52,1.46-.95,3.25-1.43,5.37-1.43,3.07,0,5.23.73,6.47,2.2,1.14,1.35,1.7,3.4,1.75,6.08-1.01.14-2.08.28-3.28.43-1.82.22-3.68.48-5.58.77-1.9.3-3.63.64-5.2,1.02-1.55.4-2.9.98-4.08,1.75-1.17.76-2.1,1.74-2.78,2.93-.68,1.19-1.02,2.63-1.02,4.31s.39,3.16,1.17,4.55c.78,1.39,1.96,2.51,3.54,3.35,1.57.84,3.53,1.26,5.85,1.26,3.09,0,5.74-.7,7.96-2.09,1.57-.98,2.82-2.3,3.81-3.92v5.15h3.75v-19.21c0-1.14-.06-2.27-.17-3.38-.11-1.11-.36-2.11-.74-3ZM365.46,310.13c-.27,1.55-.85,2.93-1.75,4.16-.9,1.23-2.08,2.2-3.55,2.9-1.47.71-3.19,1.06-5.15,1.06-1.66,0-2.99-.28-3.99-.83-1-.55-1.73-1.25-2.17-2.09-.45-.84-.67-1.71-.67-2.61,0-1.11.26-2.03.79-2.78.52-.75,1.2-1.34,2.02-1.79.82-.45,1.67-.8,2.55-1.04,1.3-.34,2.75-.64,4.37-.89,1.61-.25,3.25-.47,4.92-.66,1.07-.12,2.07-.24,3.04-.37,0,.46-.01,1.01-.02,1.64-.02,1.19-.14,2.29-.37,3.28Z"/>
    <polygon class="cls-1" points="401.51 290.12 396.47 290.12 387.31 302.17 378.06 290.12 373.03 290.12 384.85 305.41 372.77 321.03 377.84 321.03 387.31 308.64 396.73 321.03 401.79 321.03 389.69 305.41 401.51 290.12"/>
    <rect class="cls-1" x="417.25" y="279.82" width="4.21" height="41.22"/>
    <path class="cls-1" d="M452.63,295.86c-.59-1.25-1.37-2.36-2.33-3.34-.96-.97-2.14-1.75-3.52-2.32-1.38-.57-3-.86-4.85-.86-2.52,0-4.75.55-6.7,1.66-1.47.84-2.7,1.97-3.69,3.41v-4.3h-3.81v30.91h4.24v-16.49c0-1.76.2-3.32.6-4.69.4-1.37.99-2.54,1.76-3.51.77-.96,1.73-1.7,2.86-2.22,1.14-.52,2.45-.77,3.94-.77,1.62,0,3,.3,4.14.89,1.13.59,2.06,1.43,2.78,2.51.72,1.08,1.24,2.34,1.56,3.78.32,1.44.49,3.02.49,4.74v15.77h4.24v-17c0-1.39-.13-2.79-.4-4.19-.27-1.4-.7-2.73-1.29-3.98Z"/>
    <path class="cls-1" d="M466.56,281.53h-4.18v8.59h-6.61v3.61h6.61v16.11c0,1.51.02,2.85.07,4.02.05,1.17.35,2.33.9,3.48.69,1.37,1.69,2.39,3.02,3.03,1.33.65,2.83,1.01,4.52,1.09,1.69.08,3.4-.07,5.14-.43v-3.69c-2.21.36-4.07.42-5.57.17-1.5-.25-2.59-1.01-3.28-2.29-.36-.67-.56-1.44-.59-2.3-.03-.87-.04-1.95-.04-3.25v-15.94h9.47v-3.61h-9.47v-8.59Z"/>
    <path class="cls-1" d="M503.81,306.75h2.26c.09-3.63-.41-6.74-1.52-9.36-1.11-2.61-2.74-4.62-4.89-6.03-2.16-1.4-4.76-2.1-7.81-2.1s-5.56.67-7.74,2c-2.19,1.34-3.88,3.23-5.08,5.7-1.2,2.46-1.8,5.38-1.8,8.76s.61,6.11,1.83,8.53c1.22,2.42,2.93,4.3,5.14,5.64,2.2,1.34,4.81,2,7.83,2s5.68-.74,8.06-2.22c2.38-1.48,4.17-3.56,5.4-6.25l-3.92-1.52c-.95,1.93-2.26,3.4-3.91,4.42-1.65,1.02-3.58,1.53-5.8,1.53-3.24,0-5.75-1.07-7.51-3.22-1.58-1.92-2.41-4.57-2.58-7.89h22.06ZM484.33,296.36c1.76-2.16,4.31-3.23,7.63-3.23s5.58,1.02,7.23,3.06c1.35,1.67,2.15,4.05,2.44,7.04h-19.81c.29-2.86,1.11-5.16,2.51-6.87Z"/>
    <rect class="cls-1" x="510.72" y="278.96" width="4.21" height="42.08"/>
    <rect class="cls-1" x="521.49" y="278.96" width="4.21" height="42.08"/>
    <rect class="cls-1" x="532.25" y="279.53" width="4.21" height="4.72"/>
    <rect class="cls-1" x="532.25" y="290.12" width="4.21" height="30.91"/>
    <path class="cls-1" d="M565.18,294.43c-.83-1.19-1.81-2.22-2.98-3.05-1.99-1.41-4.43-2.12-7.33-2.12s-5.25.72-7.27,2.15c-2.02,1.43-3.57,3.38-4.65,5.84-1.08,2.46-1.62,5.23-1.62,8.3s.54,5.87,1.63,8.33c1.09,2.46,2.65,4.41,4.69,5.85,2.04,1.44,4.5,2.16,7.38,2.16s5.25-.72,7.21-2.16c.92-.67,1.72-1.47,2.43-2.37v3.18c.02,2.42-.29,4.45-.92,6.07-.63,1.62-1.64,2.85-3.02,3.68-1.38.83-3.19,1.24-5.42,1.24-1.62,0-3.21-.38-4.77-1.13-1.56-.75-2.76-1.99-3.62-3.71l-3.81,2.12c.88,1.6,1.97,2.91,3.26,3.91,1.3,1,2.72,1.74,4.25,2.2,1.54.47,3.1.7,4.68.7,2.52,0,4.7-.36,6.54-1.09,1.84-.73,3.33-1.83,4.47-3.32,1.14-1.49,1.88-3.39,2.25-5.7.13-.78.22-1.58.27-2.39.05-.81.07-1.66.07-2.53v-30.48h-3.75v4.31ZM560.92,316.37c-1.43,1.07-3.24,1.6-5.44,1.6s-3.95-.54-5.38-1.63c-1.43-1.09-2.5-2.57-3.22-4.45-.72-1.88-1.07-3.99-1.07-6.34s.35-4.43,1.04-6.3c.7-1.87,1.77-3.35,3.22-4.44,1.45-1.09,3.28-1.63,5.5-1.63s3.94.53,5.37,1.58c1.42,1.05,2.49,2.5,3.19,4.36.71,1.86,1.06,4,1.06,6.43s-.35,4.52-1.06,6.4c-.71,1.88-1.77,3.35-3.21,4.42Z"/>
    <path class="cls-1" d="M600.07,306.75h2.26c.09-3.63-.41-6.74-1.52-9.36-1.11-2.61-2.74-4.62-4.89-6.03-2.16-1.4-4.76-2.1-7.81-2.1s-5.56.67-7.74,2c-2.18,1.34-3.88,3.23-5.08,5.7-1.2,2.46-1.8,5.38-1.8,8.76s.61,6.11,1.83,8.53c1.22,2.42,2.93,4.3,5.14,5.64,2.2,1.34,4.81,2,7.83,2s5.68-.74,8.06-2.22c2.38-1.48,4.17-3.56,5.4-6.25l-3.92-1.52c-.95,1.93-2.26,3.4-3.91,4.42-1.65,1.02-3.58,1.53-5.8,1.53-3.24,0-5.75-1.07-7.51-3.22-1.58-1.92-2.41-4.57-2.58-7.89h22.06ZM580.59,296.36c1.77-2.16,4.31-3.23,7.63-3.23s5.58,1.02,7.23,3.06c1.35,1.67,2.15,4.05,2.44,7.04h-19.81c.29-2.86,1.11-5.16,2.51-6.87Z"/>
    <path class="cls-1" d="M631.66,295.86c-.59-1.25-1.37-2.36-2.33-3.34-.96-.97-2.14-1.75-3.52-2.32-1.38-.57-3-.86-4.85-.86-2.52,0-4.75.55-6.7,1.66-1.47.84-2.7,1.97-3.69,3.41v-4.3h-3.81v30.91h4.24v-16.49c0-1.76.2-3.32.6-4.69.4-1.37.99-2.54,1.76-3.51.77-.96,1.73-1.7,2.86-2.22,1.14-.52,2.45-.77,3.94-.77,1.62,0,3,.3,4.14.89,1.13.59,2.06,1.43,2.78,2.51.72,1.08,1.24,2.34,1.56,3.78.32,1.44.49,3.02.49,4.74v15.77h4.24v-17c0-1.39-.13-2.79-.4-4.19-.27-1.4-.7-2.73-1.29-3.98Z"/>
    <path class="cls-1" d="M646.27,294.86c1.49-1.04,3.37-1.56,5.64-1.56,2.02,0,3.82.51,5.4,1.53,1.57,1.02,2.72,2.46,3.45,4.31l4.12-1.32c-.86-2.65-2.45-4.74-4.77-6.27-2.32-1.53-5.04-2.29-8.17-2.29s-5.69.68-7.84,2.05c-2.16,1.36-3.81,3.27-4.95,5.72-1.14,2.45-1.74,5.3-1.78,8.54.04,3.19.62,6.01,1.73,8.46,1.12,2.45,2.75,4.37,4.91,5.77,2.16,1.39,4.79,2.09,7.9,2.09s5.71-.72,7.93-2.16c2.21-1.44,3.89-3.54,5.04-6.28l-4.24-1.26c-.76,1.85-1.88,3.26-3.36,4.22-1.48.96-3.27,1.45-5.37,1.45-3.32,0-5.82-1.12-7.5-3.36-1.68-2.24-2.54-5.21-2.58-8.92.02-2.4.39-4.53,1.12-6.38.73-1.85,1.83-3.3,3.32-4.34Z"/>
    <path class="cls-1" d="M693.7,306.75h2.26c.1-3.63-.41-6.74-1.52-9.36-1.11-2.61-2.74-4.62-4.89-6.03-2.16-1.4-4.76-2.1-7.81-2.1s-5.56.67-7.74,2c-2.19,1.34-3.88,3.23-5.08,5.7-1.2,2.46-1.8,5.38-1.8,8.76s.61,6.11,1.83,8.53c1.22,2.42,2.93,4.3,5.14,5.64,2.2,1.34,4.81,2,7.83,2s5.68-.74,8.06-2.22c2.38-1.48,4.17-3.56,5.4-6.25l-3.92-1.52c-.95,1.93-2.26,3.4-3.91,4.42-1.65,1.02-3.58,1.53-5.8,1.53-3.24,0-5.75-1.07-7.51-3.22-1.58-1.92-2.41-4.57-2.58-7.89h22.06ZM674.22,296.36c1.76-2.16,4.31-3.23,7.63-3.23s5.58,1.02,7.23,3.06c1.35,1.67,2.15,4.05,2.44,7.04h-19.81c.29-2.86,1.11-5.16,2.51-6.87Z"/>
  </g>
</svg>