<?xml version="1.0" encoding="UTF-8"?>
<svg id="Camada_1" data-name="Camada 1" xmlns="http://www.w3.org/2000/svg" viewBox="0 0 731.62 318.29">
  <defs>
    <style>
      .cls-1 {
        fill: #005263;
      }
    </style>
  </defs>
  <g>
    <path class="cls-1" d="M235.36,46.5v88.35c3.98,1.64,7.53,3.37,10.63,5.2V49.6c-3.44-1.11-6.96-2.1-10.63-3.1Z"/>
    <path class="cls-1" d="M206.6,40.42v86.02c5.28,1.07,10.29,2.33,14.92,3.67V43.21c-4.82-1.03-9.79-1.99-14.92-2.79Z"/>
    <path class="cls-1" d="M169.31,36.17v84.99c6.77.42,13.42,1.03,19.89,1.8V37.97c-6.46-.77-13.12-1.38-19.89-1.8Z"/>
    <path class="cls-1" d="M128.19,35.41v84.98c.08,0,.15-.04.23,0,1.64-.04,3.33-.08,5.01-.11,2.37-.04,4.78-.08,7.19-.08s4.82.04,7.19.08c1.68.04,3.37.08,5.01.11.08-.04.15,0,.23,0V35.41c-4.09-.12-8.26-.19-12.43-.19s-8.34.08-12.43.19Z"/>
    <path class="cls-1" d="M92.01,74.11v48.84c6.46-.76,13.12-1.38,19.89-1.8v-48.84c-6.77.42-13.42,1.03-19.89,1.8Z"/>
    <path class="cls-1" d="M35.21,85.74v54.35c3.1-1.84,6.65-3.6,10.67-5.24v-52.21c-3.67.99-7.23,2.03-10.67,3.1Z"/>
    <path class="cls-1" d="M59.73,79.35v50.75c4.63-1.34,9.64-2.6,14.92-3.67v-49.87c-5.13.8-10.1,1.76-14.92,2.79Z"/>
    <path class="cls-1" d="M45.85,270.78v-88.35c-3.98-1.64-7.53-3.37-10.63-5.2v90.45c3.44,1.11,6.96,2.1,10.63,3.1Z"/>
    <path class="cls-1" d="M74.61,276.86v-86.02c-5.28-1.07-10.29-2.33-14.92-3.67v86.9c4.82,1.03,9.79,1.99,14.92,2.79Z"/>
    <path class="cls-1" d="M111.9,281.11v-84.99c-6.77-.42-13.42-1.03-19.89-1.8v84.98c6.46.77,13.12,1.38,19.89,1.8Z"/>
    <path class="cls-1" d="M153.02,281.87v-84.98c-.08,0-.15.04-.23,0-1.64.04-3.33.08-5.01.11-2.37.04-4.78.08-7.19.08s-4.82-.04-7.19-.08c-1.68-.04-3.37-.08-5.01-.11-.08.04-.15,0-.23,0v84.98c4.09.12,8.26.19,12.43.19s8.34-.08,12.43-.19Z"/>
    <path class="cls-1" d="M189.2,243.16v-48.84c-6.46.76-13.12,1.38-19.89,1.8v48.84c6.77-.42,13.42-1.03,19.89-1.8Z"/>
    <path class="cls-1" d="M245.99,231.54v-54.35c-3.1,1.84-6.65,3.6-10.67,5.24v52.21c3.67-.99,7.23-2.03,10.67-3.1Z"/>
    <path class="cls-1" d="M221.48,237.93v-50.75c-4.63,1.34-9.64,2.6-14.92,3.67v49.87c5.13-.8,10.1-1.76,14.92-2.79Z"/>
  </g>
  <g>
    <path class="cls-1" d="M413.97,170.67c0,20.44-15.83,36.46-36.04,36.46-17.61,0-32.34-10.09-36.64-25.1l-.19-.67h-24.55l.28,1.15c7.07,28.77,30.48,46.76,61.1,46.95h.38c15.8,0,31.43-6.51,42.87-17.87,11.08-11.01,17.18-25.55,17.18-40.92v-84.14h-24.4v84.14Z"/>
    <path class="cls-1" d="M524.34,142.37l-4.87-.68,39.78-34.21.08-.07v-20.88h-99.64v24.42h65.66l-34.28,33.83,9.97,14.5.07.1h11.81c17,0,27.99,9.29,27.99,23.66,0,13.48-12.38,23.26-29.44,23.26-19.18,0-33.6-12.7-35.07-30.88l-.07-.86h-24.44l.05.98c1.71,30.73,27.22,53.91,59.33,53.91s54.02-19.17,54.02-46.63c0-15.84-7.1-35.71-40.95-40.46Z"/>
    <rect class="cls-1" x="581.7" y="86.53" width="114.7" height="22.13"/>
    <polygon class="cls-1" points="581.7 226.36 606.11 226.36 606.11 172.98 689.61 172.98 689.61 150.44 581.7 150.44 581.7 226.36"/>
  </g>
</svg>